<svg width="25" height="25" viewBox="0 0 25 25" fill="none" xmlns="http://www.w3.org/2000/svg">
<rect width="25" height="25" rx="2" fill="url(#paint0_linear_0_1)"/>
<path d="M7.47493 12.1125C7.64992 11.1938 8.51242 10.5625 9.44992 10.5625H11.2812C11.6062 10.5625 11.8749 10.2937 11.8749 9.96875C11.8749 9.64375 11.6062 9.375 11.2812 9.375H9.51242C7.88117 9.375 6.42492 10.5688 6.26868 12.1938C6.08743 14.0563 7.54992 15.625 9.37493 15.625H11.2812C11.6062 15.625 11.8749 15.3562 11.8749 15.0312C11.8749 14.7062 11.6062 14.4375 11.2812 14.4375H9.37493C8.18117 14.4375 7.23743 13.35 7.47493 12.1125ZM10.6249 13.125H14.3749C14.7187 13.125 14.9999 12.8438 14.9999 12.5C14.9999 12.1562 14.7187 11.875 14.3749 11.875H10.6249C10.2812 11.875 9.99993 12.1562 9.99993 12.5C9.99993 12.8438 10.2812 13.125 10.6249 13.125ZM15.4874 9.375H13.7187C13.3937 9.375 13.1249 9.64375 13.1249 9.96875C13.1249 10.2937 13.3937 10.5625 13.7187 10.5625H15.5499C16.4874 10.5625 17.3499 11.1938 17.5249 12.1125C17.7624 13.35 16.8187 14.4375 15.6249 14.4375H13.7187C13.3937 14.4375 13.1249 14.7062 13.1249 15.0312C13.1249 15.3562 13.3937 15.625 13.7187 15.625H15.6249C17.4499 15.625 18.9124 14.0563 18.7374 12.1938C18.5812 10.5688 17.1187 9.375 15.4874 9.375Z" fill="white"/>
<defs>
<linearGradient id="paint0_linear_0_1" x1="12.5" y1="0" x2="12.5" y2="25" gradientUnits="userSpaceOnUse">
<stop stop-color="#3F3BF4"/>
<stop offset="1" stop-color="#445FF6"/>
</linearGradient>
</defs>
</svg>
